# xmcd
#
# Track frame offsets: 
#        150
#        19919
#        35841
#        51668
#        67336
#        80276
#        95812
#        110776
#        125059
#        139650
#        155029
#        170119
#
# Disc length: 2488 seconds
#
# Revision: 3
# Processed by: cddbd v1.5.2PL0 Copyright (c) Steve Scherf et al.
# Submitted via: ExactAudioCopy v1.0b3
#
DISCID=c109b60c
DTITLE=Craig Morgan - This Ole Boy
DYEAR=2012
DGENRE=Country
TTITLE0=This Ole Boy
TTITLE1=More Trucks Than Cars
TTITLE2=The Whole World Needs A Kitchen
TTITLE3=Country Boys Like Me
TTITLE4=Show Me Your Tattoo
TTITLE5=Love Loves A Long Night
TTITLE6=Being Alive And Livin'
TTITLE7=Fish Weren't Bitin'
TTITLE8=Better Stories
TTITLE9=I Didn't Drink
TTITLE10=Corn Star
TTITLE11=Summer Moon
EXTD=
EXTT0=
EXTT1=
EXTT2=
EXTT3=
EXTT4=
EXTT5=
EXTT6=
EXTT7=
EXTT8=
EXTT9=
EXTT10=
EXTT11=
PLAYORDER=
